Coordinates
version=1
nRows=19
nColumns=24
inDegrees=yes

Units are S.I. units (second, meters, Newtons, ...)
Angles are in degrees.

endheader
time	pelvis_tilt	pelvis_list	pelvis_rotation	pelvis_tx	pelvis_ty	pelvis_tz	hip_flexion_r	hip_adduction_r	hip_rotation_r	knee_angle_r	ankle_angle_r	subtalar_angle_r	mtp_angle_r	hip_flexion_l	hip_adduction_l	hip_rotation_l	knee_angle_l	ankle_angle_l	subtalar_angle_l	mtp_angle_l	lumbar_extension	lumbar_bending	lumbar_rotation
      1.33733333	      0.75054079	      9.24147069	     -5.22163092	      0.23302565	      1.00567311	      0.31358513	     16.93201529	    -12.53012250	     -1.20766390	    -73.50888272	    -10.32455523	    -15.80639702	      3.57561366	      7.69100857	     14.43169554	      3.55190060	    -11.68897650	      2.04919881	    -20.14609670	     -3.22595425	    -12.45426485	     -4.64618403	     -0.43070415
      1.34150000	      0.76979271	      9.08138770	     -5.20553268	      0.23801630	      1.00664294	      0.31342410	     17.49668218	    -12.29514485	     -1.21502195	    -73.30742237	     -9.69306414	    -15.84582874	      3.37066317	      7.05918142	     14.30299869	      3.77125982	    -11.14815160	      2.02090230	    -20.23943484	     -3.25397198	    -12.46779082	     -4.38137044	     -0.82127291
      1.34566667	      0.76868844	      8.86218258	     -5.19699735	      0.24297220	      1.00759709	      0.31332165	     18.05696815	    -11.96826490	     -1.21031835	    -73.02624085	     -9.11624495	    -15.89529525	      3.24451755	      6.47068592	     14.09755670	      3.91172103	    -10.66107861	      2.06028590	    -20.21810485	     -3.27050780	    -12.48156678	     -4.07649315	     -0.99804283
      1.34983333	      0.74752691	      8.67147712	     -5.17629781	      0.24789813	      1.00843848	      0.31319788	     18.63691150	    -11.67450409	     -1.21396549	    -72.71557841	     -8.51185568	    -16.00383112	      3.17609243	      5.92256921	     13.91843264	      4.02212018	    -10.20006742	      2.07560726	    -20.15777802	     -3.28013743	    -12.48848350	     -3.79557738	     -1.14295759
      1.35400000	      0.76983476	      8.47382802	     -5.14552183	      0.25287540	      1.00933091	      0.31305826	     19.13747984	    -11.39017973	     -1.24744822	    -72.32971703	     -7.95351611	    -16.01528464	      3.04058869	      5.29736664	     13.73757290	      4.19118542	     -9.68780064	      2.10788607	    -20.15088448	     -3.29789552	    -12.51253398	     -3.50054121	     -1.45162531
      1.35816667	      0.75722997	      8.27091271	     -5.11019066	      0.25779450	      1.01012757	      0.31293536	     19.66778123	    -11.08445929	     -1.27160058	    -71.89935438	     -7.38800256	    -16.09651565	      2.95265795	      4.73632427	     13.54203669	      4.31735923	     -9.22169839	      2.12043963	    -20.08828814	     -3.30977585	    -12.53439694	     -3.20683511	     -1.61800518
      1.36233333	      0.75932072	      8.08994015	     -5.05325775	      0.26276275	      1.01089067	      0.31277256	     20.15967916	    -10.82379822	     -1.33044643	    -71.41819596	     -6.81927354	    -16.13653759	      2.73183180	      4.14263540	     13.37329065	      4.48165650	     -8.72462425	      2.12626052	    -20.07122983	     -3.33797463	    -12.53434350	     -2.92950553	     -1.96424627
      1.36650000	      0.75018119	      7.89231675	     -5.01471453	      0.26771219	      1.01159488	      0.31264179	     20.65315431	    -10.53167771	     -1.36518767	    -70.87967560	     -6.29307800	    -16.14283617	      2.60009687	      3.57505539	     13.17959650	      4.59113985	     -8.25201095	      2.17947153	    -20.00062527	     -3.35361158	    -12.53257430	     -2.63709006	     -2.12796122
      1.37066667	      0.73486177	      7.69597446	     -4.96310242	      0.27263478	      1.01225217	      0.31253082	     21.13493469	    -10.23577835	     -1.40484875	    -70.29135189	     -5.74285011	    -16.18820613	      2.53193224	      3.02920551	     12.98197939	      4.68943338	     -7.80770772	      2.20172762	    -19.89965715	     -3.36188494	    -12.54833270	     -2.37251214	     -2.27096388
      1.37483333	      0.76537091	      7.52518429	     -4.91023247	      0.27758864	      1.01289895	      0.31237966	     21.55582445	     -9.99237388	     -1.46176042	    -69.65937360	     -5.21107558	    -16.15653463	      2.39214289	      2.41496248	     12.81824555	      4.82349438	     -7.32040178	      2.25094734	    -19.82318562	     -3.37700916	    -12.58908773	     -2.09323927	     -2.57525616
      1.37900000	      0.76898643	      7.34333977	     -4.84468498	      0.28253045	      1.01347375	      0.31225168	     21.98300862	     -9.72696610	     -1.51986368	    -68.97224541	     -4.66521326	    -16.16081267	      2.20936917	      1.84396758	     12.63519545	      4.94586724	     -6.86378158	      2.27447509	    -19.73360498	     -3.39605853	    -12.60756394	     -1.83381305	     -2.83084253
      1.38316667	      0.77447802	      7.16568825	     -4.79360345	      0.28747060	      1.01400255	      0.31213248	     22.39903990	     -9.46400492	     -1.56260076	    -68.23514159	     -4.16248051	    -16.11497400	      2.09690131	      1.27497284	     12.45495967	      5.04522469	     -6.40847782	      2.33016280	    -19.63161517	     -3.40614278	    -12.63096705	     -1.56789243	     -3.00250575
      1.38733333	      0.78491049	      6.98765917	     -4.73100518	      0.29241119	      1.01448132	      0.31201930	     22.78916932	     -9.20466241	     -1.61530176	    -67.44985253	     -3.65110892	    -16.07549248	      1.99307263	      0.70492065	     12.27136037	      5.14647490	     -5.96226026	      2.37767040	    -19.51995673	     -3.41401757	    -12.66050847	     -1.30659996	     -3.20562656
      1.39150000	      0.76295169	      6.81413652	     -4.66016469	      0.29734889	      1.01487719	      0.31191697	     23.19565626	     -8.94391169	     -1.66380340	    -66.60961140	     -3.13898586	    -16.04461426	      1.93403354	      0.18599589	     12.08697285	      5.23318255	     -5.54816201	      2.41075727	    -19.40183719	     -3.41779630	    -12.65407950	     -1.07566928	     -3.35157531
      1.39566667	      0.81326463	      6.66939321	     -4.59982962	      0.30229880	      1.01527023	      0.31179614	     23.52245970	     -8.73626319	     -1.71400186	    -65.74599127	     -2.64765197	    -15.93586106	      1.83153704	     -0.42862082	     11.93986338	      5.34766687	     -5.08930295	      2.47528644	    -19.28742208	     -3.42278871	    -12.73026479	     -0.83181811	     -3.62764174
      1.39983333	      0.82500852	      6.51745364	     -4.53123839	      0.30725215	      1.01558509	      0.31169499	     23.86702841	     -8.51116221	     -1.75961517	    -64.82238542	     -2.17321593	    -15.85423577	      1.72968992	     -0.98845247	     11.77835716	      5.45619002	     -4.66064637	      2.52357931	    -19.17716897	     -3.42673235	    -12.75712468	     -0.60440642	     -3.84062995
      1.40400000	      0.81567833	      6.35570085	     -4.45399285	      0.31220133	      1.01583947	      0.31159789	     24.20990285	     -8.27272718	     -1.80689840	    -63.84078943	     -1.71338126	    -15.78826491	      1.68139405	     -1.50960221	     11.60219076	      5.54207891	     -4.26464856	      2.56099622	    -19.05601416	     -3.42746696	    -12.76444073	     -0.38216372	     -3.96900735
      1.40816667	      0.84221013	      6.22482532	     -4.38182999	      0.31714835	      1.01605273	      0.31150652	     24.51042678	     -8.07727957	     -1.84762295	    -62.83146187	     -1.27083041	    -15.67206241	      1.62692373	     -2.07479689	     11.45998786	      5.64425462	     -3.84893475	      2.61841573	    -18.93404324	     -3.42713422	    -12.81206836	     -0.17838773	     -4.16861717
      1.41233333	      0.87962984	      6.08839244	     -4.31096215	      0.32211569	      1.01623119	      0.31141418	     24.77853713	     -7.88107424	     -1.89082041	    -61.77158522	     -0.86022280	    -15.55951353	      1.57708865	     -2.65084214	     11.31170849	      5.74796410	     -3.43904646	      2.67960761	    -18.81451478	     -3.42562426	    -12.87348273	      0.02960031	     -4.35976974
